<?xml version="1.0" encoding="UTF-8" standalone="no"?>
<svg
   version="1.1"
   viewBox="0 0 843.19415 310.43832"
   fill="none"
   stroke="none"
   stroke-linecap="square"
   stroke-miterlimit="10"
   id="svg49"
   sodipodi:docname="Emergence of phase codes.svg"
   xml:space="preserve"
   width="843.19415"
   height="310.43832"
   inkscape:version="1.4.2 (ebf0e940, 2025-05-08)"
   xmlns:inkscape="http://www.inkscape.org/namespaces/inkscape"
   xmlns:sodipodi="http://sodipodi.sourceforge.net/DTD/sodipodi-0.dtd"
   xmlns="http://www.w3.org/2000/svg"
   xmlns:svg="http://www.w3.org/2000/svg"><defs
     id="defs49" /><sodipodi:namedview
     id="namedview49"
     pagecolor="#ffffff"
     bordercolor="#000000"
     borderopacity="0.25"
     inkscape:showpageshadow="2"
     inkscape:pageopacity="0.0"
     inkscape:pagecheckerboard="false"
     inkscape:deskcolor="#d1d1d1"
     inkscape:zoom="0.7581324"
     inkscape:cx="377.24281"
     inkscape:cy="87.715549"
     inkscape:window-width="1344"
     inkscape:window-height="720"
     inkscape:window-x="0"
     inkscape:window-y="25"
     inkscape:window-maximized="0"
     inkscape:current-layer="g49" /><clipPath
     id="p.0"><path
       d="M 0,0 H 960 V 720 H 0 Z"
       clip-rule="nonzero"
       id="path1" /></clipPath><g
     clip-path="url(#p.0)"
     id="g49"
     transform="translate(-84.08137,-154.62466)"><path
       fill="#000000"
       fill-opacity="0"
       d="M 0,0 H 960 V 720 H 0 Z"
       fill-rule="evenodd"
       id="path2" /><path
       fill="#000000"
       fill-opacity="0"
       d="M 653.8084,321.19025 H 533.77691"
       fill-rule="evenodd"
       id="path3" /><path
       stroke="#7f7f7f"
       stroke-width="4"
       stroke-linejoin="round"
       stroke-linecap="butt"
       d="M 638.64844,321.19025 H 533.77692"
       fill-rule="evenodd"
       id="path4" /><path
       fill="#7f7f7f"
       stroke="#7f7f7f"
       stroke-width="4"
       stroke-linecap="butt"
       d="m 651.8084,321.19025 c 0,3.63403 -2.94598,6.57999 -6.58002,6.57999 -3.63403,0 -6.58001,-2.94596 -6.58001,-6.57999 0,-3.63403 2.94598,-6.57999 6.58001,-6.57999 3.63404,0 6.58002,2.94596 6.58002,6.57999 z"
       fill-rule="nonzero"
       id="path5" /><path
       fill="#000000"
       fill-opacity="0"
       d="M 419.8425,321.19025 299.81101,240.71782"
       fill-rule="evenodd"
       id="path6" /><path
       stroke="#2ca02c"
       stroke-width="3"
       stroke-linejoin="round"
       stroke-linecap="butt"
       d="M 419.84253,321.19025 309.25497,247.04932"
       fill-rule="evenodd"
       id="path7" /><path
       fill="#2ca02c"
       stroke="#2ca02c"
       stroke-width="3"
       stroke-linecap="butt"
       d="m 301.05692,241.5531 c 1.51773,-2.26384 4.58331,-2.86867 6.84714,-1.35094 2.26385,1.51775 2.86868,4.58332 1.35092,6.84716 -1.51773,2.26384 -4.58328,2.86866 -6.84714,1.35093 -2.26382,-1.51774 -2.86865,-4.58331 -1.35092,-6.84715 z"
       fill-rule="nonzero"
       id="path8" /><path
       fill="#000000"
       fill-opacity="0"
       d="M 419.8425,321.19025 299.81101,401.66269"
       fill-rule="evenodd"
       id="path9" /><path
       stroke="#9467bd"
       stroke-width="3"
       stroke-linejoin="round"
       stroke-linecap="butt"
       d="m 419.84253,321.19025 -110.58756,74.1409"
       fill-rule="evenodd"
       id="path10" /><path
       fill="#9467bd"
       stroke="#9467bd"
       stroke-width="3"
       stroke-linecap="butt"
       d="m 301.05692,400.8274 c -1.51773,-2.26382 -0.9129,-5.32941 1.35092,-6.84714 2.26386,-1.51773 5.32941,-0.9129 6.84714,1.35092 1.51776,2.26383 0.91293,5.32941 -1.35092,6.84714 -2.26383,1.51776 -5.32941,0.91293 -6.84714,-1.35092 z"
       fill-rule="nonzero"
       id="path11" /><path
       fill="#000000"
       fill-opacity="0"
       d="M 419.8425,321.19025 H 299.81101"
       fill-rule="evenodd"
       id="path12" /><path
       stroke="#d62728"
       stroke-width="3"
       stroke-linejoin="round"
       stroke-linecap="butt"
       d="M 419.84253,321.19025 H 311.181"
       fill-rule="evenodd"
       id="path13" /><path
       fill="#d62728"
       stroke="#d62728"
       stroke-width="3"
       stroke-linecap="butt"
       d="m 301.311,321.19025 c 0,-2.72553 2.20947,-4.935 4.935,-4.935 2.72552,0 4.935,2.20948 4.935,4.935 0,2.72552 -2.20948,4.935 -4.935,4.935 -2.72553,0 -4.935,-2.20948 -4.935,-4.935 z"
       fill-rule="nonzero"
       id="path14" /><path
       fill="#000000"
       fill-opacity="0"
       d="m 84.08137,220.27559 h 30.64567 v 47.65355 H 84.08137 Z"
       fill-rule="evenodd"
       id="path15" /><path
       fill="#2ca02c"
       d="m 94.08137,243.84685 q 0,-3.04688 0.625,-4.90625 0.625,-1.85938 1.859375,-2.85938 1.234375,-1.01562 3.109375,-1.01562 1.39063,0 2.42188,0.5625 1.04687,0.54687 1.71875,1.59375 0.6875,1.04687 1.07812,2.5625 0.39063,1.5 0.39063,4.0625 0,3.01562 -0.625,4.875 -0.625,1.85937 -1.85938,2.875 -1.23437,1.01562 -3.125,1.01562 -2.484375,0 -3.890625,-1.78125 -1.703125,-2.15625 -1.703125,-6.98437 z m 2.171875,0 q 0,4.21875 0.984375,5.625 0.984375,1.40625 2.4375,1.40625 1.45313,0 2.4375,-1.40625 1,-1.40625 1,-5.625 0,-4.25 -1,-5.64063 -0.98437,-1.39062 -2.453125,-1.39062 -1.453125,0 -2.328125,1.21875 -1.078125,1.57812 -1.078125,5.8125 z"
       fill-rule="nonzero"
       id="path16" /><path
       fill="#000000"
       fill-opacity="0"
       d="m 84.08137,297.36353 h 30.64567 v 47.65353 H 84.08137 Z"
       fill-rule="evenodd"
       id="path17" /><path
       fill="#d62728"
       d="M 102.01887,329.4035 H 99.909495 V 315.966 q -0.75,0.71875 -2,1.45312 -1.234375,0.71875 -2.21875,1.07813 V 316.466 q 1.78125,-0.82813 3.09375,-2.01563 1.328125,-1.1875 1.875005,-2.29687 h 1.35937 z"
       fill-rule="nonzero"
       id="path18" /><path
       fill="#000000"
       fill-opacity="0"
       d="m 84.08137,374.45407 h 30.64567 V 422.1076 H 84.08137 Z"
       fill-rule="evenodd"
       id="path19" /><path
       fill="#9467bd"
       d="m 105.15949,404.46283 v 2.03125 H 93.81574 q -0.03125,-0.76563 0.234375,-1.46875 0.4375,-1.15625 1.390625,-2.28125 0.953125,-1.125 2.765625,-2.60938 2.796875,-2.29687 3.781255,-3.625 0.98437,-1.34375 0.98437,-2.54687 0,-1.25 -0.90625,-2.10938 -0.89062,-0.85937 -2.328125,-0.85937 -1.515625,0 -2.4375,0.92187 -0.90625,0.90625 -0.921875,2.51563 l -2.171875,-0.21875 q 0.21875,-2.42188 1.671875,-3.6875 1.453125,-1.28125 3.90625,-1.28125 2.46875,0 3.90625,1.375 1.45313,1.35937 1.45313,3.39062 0,1.03125 -0.42188,2.03125 -0.42187,1 -1.40625,2.10938 -0.96875,1.09375 -3.25,3.01562 -1.890625,1.59375 -2.4375,2.15625 -0.53125,0.5625 -0.890625,1.14063 z"
       fill-rule="nonzero"
       id="path20" /><path
       fill="#000000"
       fill-opacity="0"
       d="M 658.3123,321.18896 H 883.1627"
       fill-rule="evenodd"
       id="path21" /><path
       stroke="#595959"
       stroke-width="1"
       stroke-linejoin="round"
       stroke-linecap="butt"
       stroke-dasharray="4, 3"
       d="M 658.3123,321.18896 H 883.1627"
       fill-rule="evenodd"
       id="path22" /><path
       fill="#000000"
       fill-opacity="0"
       d="m 658.3123,321.18896 c 38.69293,0 58.03937,20.14963 77.38586,40.29922 19.34644,20.1496 38.69287,40.29923 77.3858,40.29923"
       fill-rule="evenodd"
       id="path23" /><path
       stroke="#ff7f0e"
       stroke-width="3"
       stroke-linejoin="round"
       stroke-linecap="butt"
       d="m 658.3123,321.18896 c 38.69293,0 58.03937,20.14963 77.38586,40.29922 19.34644,20.1496 38.69287,40.29923 77.3858,40.29923"
       fill-rule="evenodd"
       id="path24" /><path
       fill="#000000"
       fill-opacity="0"
       d="m 658.3123,321.18896 c 38.69293,0 58.03937,-19.83463 77.38586,-39.66928 19.34644,-19.83466 38.69287,-39.6693 77.3858,-39.6693"
       fill-rule="evenodd"
       id="path25" /><path
       stroke="#1f77b4"
       stroke-width="3"
       stroke-linejoin="round"
       stroke-linecap="butt"
       d="m 658.3123,321.18896 c 38.69293,0 58.03937,-19.83463 77.38586,-39.66928 19.34644,-19.83466 38.69287,-39.6693 77.3858,-39.6693"
       fill-rule="evenodd"
       id="path26" /><path
       fill="#000000"
       fill-opacity="0"
       d="m 820.32806,220.27559 h 55.59058 v 47.65355 h -55.59058 z"
       fill-rule="evenodd"
       id="path27" /><path
       fill="#1f77b4"
       d="m 842.01166,249.53435 v -4.70313 h -4.67188 v -1.96875 h 4.67188 v -4.6875 h 1.98437 v 4.6875 h 4.6875 v 1.96875 h -4.6875 v 4.70313 z m 16.9375,2.78125 h -2.10938 v -13.4375 q -0.75,0.71875 -2,1.45312 -1.23437,0.71875 -2.21875,1.07813 v -2.03125 q 1.78125,-0.82813 3.09375,-2.01563 1.32813,-1.1875 1.875,-2.29687 h 1.35938 z"
       fill-rule="nonzero"
       id="path28" /><path
       fill="#000000"
       fill-opacity="0"
       d="m 820.32806,374.45407 h 55.59058 v 47.65353 h -55.59058 z"
       fill-rule="evenodd"
       id="path29" /><path
       fill="#ff7f0e"
       d="m 836.76166,401.33783 v -2.125 h 6.48437 v 2.125 z m 16.16406,5.15625 h -2.10937 v -13.4375 q -0.75,0.71875 -2,1.45312 -1.23438,0.71875 -2.21875,1.07813 v -2.03125 q 1.78125,-0.82813 3.09375,-2.01563 1.32812,-1.1875 1.875,-2.29687 h 1.35937 z"
       fill-rule="nonzero"
       id="path30" /><path
       fill="#000000"
       fill-opacity="0"
       d="m 123.36877,262.53018 h 152.8819"
       fill-rule="evenodd"
       id="path31" /><path
       stroke="#2ca02c"
       stroke-width="4"
       stroke-linejoin="round"
       stroke-linecap="butt"
       d="m 123.36877,262.53018 h 152.8819"
       fill-rule="evenodd"
       id="path32" /><path
       fill="#2ca02c"
       d="m 146.36745,224.26772 h 13.57481 v 38.26771 h -13.57481 z"
       fill-rule="evenodd"
       id="path33" /><path
       fill="#000000"
       fill-opacity="0"
       d="m 123.36877,340.63254 h 152.8819"
       fill-rule="evenodd"
       id="path34" /><path
       stroke="#d62728"
       stroke-width="4"
       stroke-linejoin="round"
       stroke-linecap="butt"
       d="m 123.36877,340.63254 h 152.8819"
       fill-rule="evenodd"
       id="path35" /><path
       fill="#d62728"
       d="m 186.36745,302.3701 h 13.57481 v 38.2677 h -13.57481 z"
       fill-rule="evenodd"
       id="path36" /><path
       fill="#000000"
       fill-opacity="0"
       d="m 123.37008,417.40945 h 152.8819"
       fill-rule="evenodd"
       id="path37" /><path
       stroke="#9467bd"
       stroke-width="4"
       stroke-linejoin="round"
       stroke-linecap="butt"
       d="m 123.37008,417.40945 h 152.8819"
       fill-rule="evenodd"
       id="path38" /><path
       fill="#9467bd"
       d="m 226.36876,379.14697 h 13.57481 v 38.26773 h -13.57481 z"
       fill-rule="evenodd"
       id="path39" /><path
       fill="#000000"
       fill-opacity="0"
       d="M 98.850395,154.62466 H 284.77165 v 60.12599 H 98.850395 Z"
       fill-rule="evenodd"
       id="path40" /><path
       fill="#595959"
       d="m 128.29735,186.66467 v -17.1875 h 6.46875 q 1.71875,0 2.625,0.17187 1.26562,0.20313 2.10937,0.79688 0.85938,0.59375 1.375,1.67187 0.53125,1.0625 0.53125,2.32813 0,2.20312 -1.40625,3.71875 -1.39062,1.51562 -5.03125,1.51562 h -4.40625 v 6.98438 z m 2.26562,-9.01563 h 4.4375 q 2.20313,0 3.125,-0.8125 0.9375,-0.82812 0.9375,-2.3125 0,-1.07812 -0.54687,-1.84375 -0.54688,-0.76562 -1.4375,-1.01562 -0.57813,-0.15625 -2.125,-0.15625 h -4.39063 z m 21.61719,9.01563 v -1.82813 q -1.45312,2.10938 -3.9375,2.10938 -1.10937,0 -2.0625,-0.42188 -0.95312,-0.42187 -1.42187,-1.0625 -0.45313,-0.64062 -0.64063,-1.5625 -0.14062,-0.625 -0.14062,-1.96875 v -7.71875 h 2.10937 v 6.90625 q 0,1.65625 0.14063,2.23438 0.1875,0.82812 0.82812,1.3125 0.65625,0.46875 1.60938,0.46875 0.9375,0 1.76562,-0.48438 0.84375,-0.5 1.1875,-1.32812 0.34375,-0.84375 0.34375,-2.4375 v -6.67188 h 2.10938 v 12.45313 z m 5.14453,0 v -17.1875 h 2.10938 v 17.1875 z m 4.53516,-3.71875 2.09375,-0.32813 q 0.17188,1.25 0.96875,1.92188 0.8125,0.67187 2.25,0.67187 1.45313,0 2.15625,-0.59375 0.70313,-0.59375 0.70313,-1.39062 0,-0.71875 -0.625,-1.125 -0.42188,-0.28125 -2.15625,-0.71875 -2.3125,-0.57813 -3.21875,-1 -0.89063,-0.4375 -1.35938,-1.1875 -0.45312,-0.76563 -0.45312,-1.67188 0,-0.82812 0.375,-1.53125 0.39062,-0.71875 1.04687,-1.1875 0.48438,-0.35937 1.32813,-0.60937 0.85937,-0.26563 1.82812,-0.26563 1.46875,0 2.57813,0.42188 1.10937,0.42187 1.625,1.15625 0.53125,0.71875 0.73437,1.92187 l -2.0625,0.28125 q -0.14062,-0.96875 -0.8125,-1.5 -0.67187,-0.54687 -1.90625,-0.54687 -1.45312,0 -2.07812,0.48437 -0.625,0.48438 -0.625,1.125 0,0.40625 0.26562,0.73438 0.25,0.34375 0.8125,0.5625 0.3125,0.125 1.85938,0.54687 2.23437,0.59375 3.10937,0.98438 0.89063,0.375 1.39063,1.10937 0.51562,0.71875 0.51562,1.79688 0,1.04687 -0.625,1.98437 -0.60937,0.9375 -1.76562,1.45313 -1.15625,0.5 -2.625,0.5 -2.42188,0 -3.70313,-1 -1.26562,-1.01563 -1.625,-3 z m 21.375,-0.29688 2.17188,0.28125 q -0.51563,1.90625 -1.90625,2.96875 -1.39063,1.04688 -3.5625,1.04688 -2.73438,0 -4.34375,-1.67188 -1.59375,-1.6875 -1.59375,-4.73437 0,-3.14063 1.60937,-4.875 1.625,-1.73438 4.20313,-1.73438 2.5,0 4.07812,1.70313 1.59375,1.70312 1.59375,4.78125 0,0.1875 -0.0156,0.5625 H 176.188 q 0.10937,2.04687 1.15625,3.14062 1.04687,1.09375 2.60937,1.09375 1.15625,0 1.96875,-0.60937 0.82813,-0.60938 1.3125,-1.95313 z m -6.9375,-3.40625 h 6.95313 q -0.14063,-1.5625 -0.79688,-2.35937 -1,-1.21875 -2.60937,-1.21875 -1.45313,0 -2.45313,0.98437 -0.98437,0.96875 -1.09375,2.59375 z m 18.4375,-7.32812 v -2.4375 h 2.10938 v 2.4375 z m 0,14.75 v -12.45313 h 2.10938 v 12.45313 z m 5.31641,0 v -12.45313 h 1.90625 v 1.78125 q 1.375,-2.0625 3.95312,-2.0625 1.125,0 2.0625,0.40625 0.95313,0.40625 1.42188,1.0625 0.46875,0.65625 0.65625,1.5625 0.125,0.57813 0.125,2.04688 v 7.65625 h -2.10938 v -7.57813 q 0,-1.28125 -0.25,-1.92187 -0.25,-0.64063 -0.875,-1.01563 -0.625,-0.39062 -1.46875,-0.39062 -1.34375,0 -2.32812,0.85937 -0.98438,0.85938 -0.98438,3.25 v 6.79688 z m 13.34765,4.76562 v -17.21875 h 1.92188 v 1.625 q 0.6875,-0.95312 1.53125,-1.42187 0.85937,-0.48438 2.07812,-0.48438 1.59375,0 2.8125,0.82813 1.21875,0.8125 1.84375,2.3125 0.625,1.5 0.625,3.28125 0,1.90625 -0.6875,3.4375 -0.6875,1.53125 -2,2.34375 -1.29687,0.8125 -2.73437,0.8125 -1.0625,0 -1.90625,-0.4375 -0.82813,-0.45313 -1.375,-1.14063 v 6.0625 z m 1.92188,-10.92187 q 0,2.40625 0.96875,3.5625 0.96875,1.14062 2.35937,1.14062 1.40625,0 2.40625,-1.1875 1,-1.1875 1,-3.6875 0,-2.375 -0.98437,-3.5625 -0.96875,-1.1875 -2.32813,-1.1875 -1.35937,0 -2.39062,1.26563 -1.03125,1.25 -1.03125,3.65625 z m 19.58203,6.15625 v -1.82813 q -1.45313,2.10938 -3.9375,2.10938 -1.10938,0 -2.0625,-0.42188 -0.95313,-0.42187 -1.42188,-1.0625 -0.45312,-0.64062 -0.64062,-1.5625 -0.14063,-0.625 -0.14063,-1.96875 v -7.71875 h 2.10938 v 6.90625 q 0,1.65625 0.14062,2.23438 0.1875,0.82812 0.82813,1.3125 0.65625,0.46875 1.60937,0.46875 0.9375,0 1.76563,-0.48438 0.84375,-0.5 1.1875,-1.32812 0.34375,-0.84375 0.34375,-2.4375 v -6.67188 h 2.10937 v 12.45313 z m 9.80078,-1.89063 0.3125,1.85938 q -0.89063,0.20312 -1.59375,0.20312 -1.15625,0 -1.79688,-0.35937 -0.625,-0.375 -0.89062,-0.96875 -0.25,-0.59375 -0.25,-2.48438 v -7.17187 h -1.54688 v -1.64063 h 1.54688 v -3.07812 l 2.09375,-1.26563 v 4.34375 h 2.125 v 1.64063 h -2.125 v 7.28125 q 0,0.90625 0.10937,1.17187 0.125,0.25 0.375,0.40625 0.25,0.14063 0.71875,0.14063 0.34375,0 0.92188,-0.0781 z m 1.21484,-1.82812 2.09375,-0.32813 q 0.17188,1.25 0.96875,1.92188 0.8125,0.67187 2.25,0.67187 1.45313,0 2.15625,-0.59375 0.70313,-0.59375 0.70313,-1.39062 0,-0.71875 -0.625,-1.125 -0.42188,-0.28125 -2.15625,-0.71875 -2.3125,-0.57813 -3.21875,-1 -0.89063,-0.4375 -1.35938,-1.1875 -0.45312,-0.76563 -0.45312,-1.67188 0,-0.82812 0.375,-1.53125 0.39062,-0.71875 1.04687,-1.1875 0.48438,-0.35937 1.32813,-0.60937 0.85937,-0.26563 1.82812,-0.26563 1.46875,0 2.57813,0.42188 1.10937,0.42187 1.625,1.15625 0.53125,0.71875 0.73437,1.92187 l -2.0625,0.28125 q -0.14062,-0.96875 -0.8125,-1.5 -0.67187,-0.54687 -1.90625,-0.54687 -1.45312,0 -2.07812,0.48437 -0.625,0.48438 -0.625,1.125 0,0.40625 0.26562,0.73438 0.25,0.34375 0.8125,0.5625 0.3125,0.125 1.85938,0.54687 2.23437,0.59375 3.10937,0.98438 0.89063,0.375 1.39063,1.10937 0.51564,0.71875 0.51564,1.79688 0,1.04687 -0.62502,1.98437 -0.60937,0.9375 -1.76562,1.45313 -1.15625,0.5 -2.625,0.5 -2.42188,0 -3.70313,-1 -1.26562,-1.01563 -1.625,-3 z"
       fill-rule="nonzero"
       id="path41" /><path
       fill="#000000"
       fill-opacity="0"
       d="m 588.1076,154.62466 h 295.1811 v 60.12599 H 588.1076 Z"
       fill-rule="evenodd"
       id="path42" /><path
       fill="#595959"
       d="m 660.6754,178.28967 q 0,-4.26563 2.29687,-6.6875 2.29688,-2.42188 5.9375,-2.42188 2.375,0 4.28125,1.14063 1.92188,1.125 2.92188,3.17187 1,2.03125 1,4.60938 0,2.60937 -1.0625,4.67187 -1.04688,2.0625 -2.98438,3.125 -1.9375,1.0625 -4.17187,1.0625 -2.42188,0 -4.34375,-1.17187 -1.90625,-1.17188 -2.89063,-3.20313 -0.98437,-2.03125 -0.98437,-4.29687 z m 2.34375,0.0469 q 0,3.09375 1.67187,4.89063 1.67188,1.78125 4.1875,1.78125 2.57813,0 4.23438,-1.79688 1.65625,-1.8125 1.65625,-5.125 0,-2.09375 -0.71875,-3.65625 -0.70313,-1.57812 -2.07813,-2.4375 -1.35937,-0.85937 -3.04687,-0.85937 -2.42188,0 -4.17188,1.65625 -1.73437,1.65625 -1.73437,5.54687 z m 24.90234,8.32813 v -1.82813 q -1.45312,2.10938 -3.9375,2.10938 -1.10937,0 -2.0625,-0.42188 -0.95312,-0.42187 -1.42187,-1.0625 -0.45313,-0.64062 -0.64063,-1.5625 -0.14062,-0.625 -0.14062,-1.96875 v -7.71875 h 2.10937 v 6.90625 q 0,1.65625 0.14063,2.23438 0.1875,0.82812 0.82812,1.3125 0.65625,0.46875 1.60938,0.46875 0.9375,0 1.76562,-0.48438 0.84375,-0.5 1.1875,-1.32812 0.34375,-0.84375 0.34375,-2.4375 v -6.67188 h 2.10938 v 12.45313 z m 9.80078,-1.89063 0.3125,1.85938 q -0.89062,0.20312 -1.59375,0.20312 -1.15625,0 -1.79687,-0.35937 -0.625,-0.375 -0.89063,-0.96875 -0.25,-0.59375 -0.25,-2.48438 v -7.17187 h -1.54687 v -1.64063 h 1.54687 v -3.07812 l 2.09375,-1.26563 v 4.34375 h 2.125 v 1.64063 h -2.125 v 7.28125 q 0,0.90625 0.10938,1.17187 0.125,0.25 0.375,0.40625 0.25,0.14063 0.71875,0.14063 0.34375,0 0.92187,-0.0781 z m 2.0586,6.65625 v -17.21875 h 1.92187 v 1.625 q 0.6875,-0.95312 1.53125,-1.42187 0.85938,-0.48438 2.07813,-0.48438 1.59375,0 2.8125,0.82813 1.21875,0.8125 1.84375,2.3125 0.625,1.5 0.625,3.28125 0,1.90625 -0.6875,3.4375 -0.6875,1.53125 -2,2.34375 -1.29688,0.8125 -2.73438,0.8125 -1.0625,0 -1.90625,-0.4375 -0.82812,-0.45313 -1.375,-1.14063 v 6.0625 z m 1.92187,-10.92187 q 0,2.40625 0.96875,3.5625 0.96875,1.14062 2.35938,1.14062 1.40625,0 2.40625,-1.1875 1,-1.1875 1,-3.6875 0,-2.375 -0.98438,-3.5625 -0.96875,-1.1875 -2.32812,-1.1875 -1.35938,0 -2.39063,1.26563 -1.03125,1.25 -1.03125,3.65625 z m 19.58203,6.15625 v -1.82813 q -1.45312,2.10938 -3.9375,2.10938 -1.10937,0 -2.0625,-0.42188 -0.95312,-0.42187 -1.42187,-1.0625 -0.45313,-0.64062 -0.64063,-1.5625 -0.14062,-0.625 -0.14062,-1.96875 v -7.71875 h 2.10937 v 6.90625 q 0,1.65625 0.14063,2.23438 0.1875,0.82812 0.82812,1.3125 0.65625,0.46875 1.60938,0.46875 0.9375,0 1.76562,-0.48438 0.84375,-0.5 1.1875,-1.32812 0.34375,-0.84375 0.34375,-2.4375 v -6.67188 h 2.10938 v 12.45313 z m 9.80079,-1.89063 0.3125,1.85938 q -0.89063,0.20312 -1.59375,0.20312 -1.15625,0 -1.79688,-0.35937 -0.625,-0.375 -0.89062,-0.96875 -0.25,-0.59375 -0.25,-2.48438 v -7.17187 h -1.54688 v -1.64063 h 1.54688 v -3.07812 l 2.09375,-1.26563 v 4.34375 h 2.125 v 1.64063 h -2.125 v 7.28125 q 0,0.90625 0.10937,1.17187 0.125,0.25 0.375,0.40625 0.25,0.14063 0.71875,0.14063 0.34375,0 0.92188,-0.0781 z m 16.85156,-2.67187 2.07812,0.26562 q -0.34375,2.15625 -1.75,3.375 -1.39062,1.20313 -3.4375,1.20313 -2.54687,0 -4.10937,-1.67188 -1.54688,-1.67187 -1.54688,-4.78125 0,-2.01562 0.67188,-3.53125 0.67187,-1.51562 2.03125,-2.26562 1.35937,-0.76563 2.96875,-0.76563 2.03125,0 3.3125,1.03125 1.29687,1.03125 1.65625,2.90625 l -2.04688,0.32813 q -0.29687,-1.26563 -1.04687,-1.89063 -0.73438,-0.64062 -1.79688,-0.64062 -1.59375,0 -2.59375,1.15625 -0.98437,1.14062 -0.98437,3.60937 0,2.5 0.95312,3.64063 0.96875,1.14062 2.51563,1.14062 1.23437,0 2.0625,-0.76562 0.84375,-0.76563 1.0625,-2.34375 z m 3.82812,4.5625 v -17.1875 h 2.10938 v 17.1875 z m 13.50391,-1.53125 q -1.17188,0.98437 -2.26563,1.40625 -1.07812,0.40625 -2.3125,0.40625 -2.04687,0 -3.15625,-1 -1.09375,-1 -1.09375,-2.5625 0,-0.92188 0.40625,-1.67188 0.42188,-0.75 1.09375,-1.20312 0.67188,-0.46875 1.51563,-0.70313 0.625,-0.15625 1.875,-0.3125 2.5625,-0.3125 3.76562,-0.73437 0.0156,-0.42188 0.0156,-0.54688 0,-1.28125 -0.60938,-1.8125 -0.79687,-0.71875 -2.39062,-0.71875 -1.5,0 -2.20313,0.53125 -0.70312,0.51563 -1.04687,1.84375 l -2.0625,-0.28125 q 0.28125,-1.32812 0.92187,-2.14062 0.64063,-0.8125 1.85938,-1.25 1.21875,-0.45313 2.82812,-0.45313 1.59375,0 2.59375,0.375 1,0.375 1.46875,0.95313 0.46875,0.5625 0.65625,1.4375 0.0937,0.53125 0.0937,1.9375 v 2.8125 q 0,2.9375 0.14063,3.71875 0.14062,0.78125 0.53125,1.5 h -2.20313 q -0.32812,-0.65625 -0.42187,-1.53125 z m -0.17188,-4.71875 q -1.15625,0.46875 -3.45312,0.79687 -1.29688,0.1875 -1.84375,0.42188 -0.53125,0.23437 -0.82813,0.6875 -0.28125,0.45312 -0.28125,1 0,0.84375 0.625,1.40625 0.64063,0.5625 1.875,0.5625 1.21875,0 2.17188,-0.53125 0.95312,-0.53125 1.39062,-1.45313 0.34375,-0.71875 0.34375,-2.10937 z m 4.55079,2.53125 2.09375,-0.32813 q 0.17187,1.25 0.96875,1.92188 0.8125,0.67187 2.25,0.67187 1.45312,0 2.15625,-0.59375 0.70312,-0.59375 0.70312,-1.39062 0,-0.71875 -0.625,-1.125 -0.42187,-0.28125 -2.15625,-0.71875 -2.3125,-0.57813 -3.21875,-1 -0.89062,-0.4375 -1.35937,-1.1875 -0.45313,-0.76563 -0.45313,-1.67188 0,-0.82812 0.375,-1.53125 0.39063,-0.71875 1.04688,-1.1875 0.48437,-0.35937 1.32812,-0.60937 0.85938,-0.26563 1.82813,-0.26563 1.46875,0 2.57812,0.42188 1.10938,0.42187 1.625,1.15625 0.53125,0.71875 0.73438,1.92187 l -2.0625,0.28125 q -0.14063,-0.96875 -0.8125,-1.5 -0.67188,-0.54687 -1.90625,-0.54687 -1.45313,0 -2.07813,0.48437 -0.625,0.48438 -0.625,1.125 0,0.40625 0.26563,0.73438 0.25,0.34375 0.8125,0.5625 0.3125,0.125 1.85937,0.54687 2.23438,0.59375 3.10938,0.98438 0.89062,0.375 1.39062,1.10937 0.51563,0.71875 0.51563,1.79688 0,1.04687 -0.625,1.98437 -0.60938,0.9375 -1.76563,1.45313 -1.15625,0.5 -2.625,0.5 -2.42187,0 -3.70312,-1 -1.26563,-1.01563 -1.625,-3 z m 12,0 2.09375,-0.32813 q 0.17187,1.25 0.96875,1.92188 0.8125,0.67187 2.25,0.67187 1.45312,0 2.15625,-0.59375 0.70312,-0.59375 0.70312,-1.39062 0,-0.71875 -0.625,-1.125 -0.42187,-0.28125 -2.15625,-0.71875 -2.3125,-0.57813 -3.21875,-1 -0.89062,-0.4375 -1.35937,-1.1875 -0.45313,-0.76563 -0.45313,-1.67188 0,-0.82812 0.375,-1.53125 0.39063,-0.71875 1.04688,-1.1875 0.48437,-0.35937 1.32812,-0.60937 0.85938,-0.26563 1.82813,-0.26563 1.46875,0 2.57812,0.42188 1.10938,0.42187 1.625,1.15625 0.53125,0.71875 0.73438,1.92187 l -2.0625,0.28125 q -0.14063,-0.96875 -0.8125,-1.5 -0.67188,-0.54687 -1.90625,-0.54687 -1.45313,0 -2.07813,0.48437 -0.625,0.48438 -0.625,1.125 0,0.40625 0.26563,0.73438 0.25,0.34375 0.8125,0.5625 0.3125,0.125 1.85937,0.54687 2.23438,0.59375 3.10938,0.98438 0.89062,0.375 1.39062,1.10937 0.51563,0.71875 0.51563,1.79688 0,1.04687 -0.625,1.98437 -0.60938,0.9375 -1.76563,1.45313 -1.15625,0.5 -2.625,0.5 -2.42187,0 -3.70312,-1 -1.26563,-1.01563 -1.625,-3 z m 12.85937,-11.03125 v -2.4375 h 2.10938 v 2.4375 z m 0,14.75 v -12.45313 h 2.10938 v 12.45313 z m 5.83203,0 v -10.8125 h -1.875 v -1.64063 h 1.875 v -1.3125 q 0,-1.26562 0.21875,-1.875 0.29688,-0.8125 1.0625,-1.3125 0.78125,-0.51562 2.15625,-0.51562 0.89063,0 1.96875,0.20312 l -0.3125,1.84375 q -0.65625,-0.125 -1.25,-0.125 -0.95312,0 -1.35937,0.42188 -0.39063,0.40625 -0.39063,1.53125 v 1.14062 h 2.42188 v 1.64063 h -2.42188 v 10.8125 z m 6.16797,-14.75 v -2.4375 h 2.10938 v 2.4375 z m 0,14.75 v -12.45313 h 2.10938 v 12.45313 z m 13.44141,-4.5625 2.07812,0.26562 q -0.34375,2.15625 -1.75,3.375 -1.39062,1.20313 -3.4375,1.20313 -2.54687,0 -4.10937,-1.67188 -1.54688,-1.67187 -1.54688,-4.78125 0,-2.01562 0.67188,-3.53125 0.67187,-1.51562 2.03125,-2.26562 1.35937,-0.76563 2.96875,-0.76563 2.03125,0 3.3125,1.03125 1.29687,1.03125 1.65625,2.90625 l -2.04688,0.32813 q -0.29687,-1.26563 -1.04687,-1.89063 -0.73438,-0.64062 -1.79688,-0.64062 -1.59375,0 -2.59375,1.15625 -0.98437,1.14062 -0.98437,3.60937 0,2.5 0.95312,3.64063 0.96875,1.14062 2.51563,1.14062 1.23437,0 2.0625,-0.76562 0.84375,-0.76563 1.0625,-2.34375 z m 12,3.03125 q -1.17188,0.98437 -2.26563,1.40625 -1.07812,0.40625 -2.3125,0.40625 -2.04687,0 -3.15625,-1 -1.09375,-1 -1.09375,-2.5625 0,-0.92188 0.40625,-1.67188 0.42188,-0.75 1.09375,-1.20312 0.67188,-0.46875 1.51563,-0.70313 0.625,-0.15625 1.875,-0.3125 2.5625,-0.3125 3.76562,-0.73437 0.0156,-0.42188 0.0156,-0.54688 0,-1.28125 -0.60938,-1.8125 -0.79687,-0.71875 -2.39062,-0.71875 -1.5,0 -2.20313,0.53125 -0.70312,0.51563 -1.04687,1.84375 l -2.0625,-0.28125 q 0.28125,-1.32812 0.92187,-2.14062 0.64063,-0.8125 1.85938,-1.25 1.21875,-0.45313 2.82812,-0.45313 1.59375,0 2.59375,0.375 1,0.375 1.46875,0.95313 0.46875,0.5625 0.65625,1.4375 0.0937,0.53125 0.0937,1.9375 v 2.8125 q 0,2.9375 0.14063,3.71875 0.14062,0.78125 0.53125,1.5 h -2.20313 q -0.32812,-0.65625 -0.42187,-1.53125 z m -0.17188,-4.71875 q -1.15625,0.46875 -3.45312,0.79687 -1.29688,0.1875 -1.84375,0.42188 -0.53125,0.23437 -0.82813,0.6875 -0.28125,0.45312 -0.28125,1 0,0.84375 0.625,1.40625 0.64063,0.5625 1.875,0.5625 1.21875,0 2.17188,-0.53125 0.95312,-0.53125 1.39062,-1.45313 0.34375,-0.71875 0.34375,-2.10937 z m 10.00391,4.35937 0.3125,1.85938 q -0.89063,0.20312 -1.59375,0.20312 -1.15625,0 -1.79688,-0.35937 -0.625,-0.375 -0.89062,-0.96875 -0.25,-0.59375 -0.25,-2.48438 v -7.17187 h -1.54688 v -1.64063 h 1.54688 v -3.07812 l 2.09375,-1.26563 v 4.34375 h 2.125 v 1.64063 h -2.125 v 7.28125 q 0,0.90625 0.10937,1.17187 0.125,0.25 0.375,0.40625 0.25,0.14063 0.71875,0.14063 0.34375,0 0.92188,-0.0781 z m 2.07422,-12.85937 v -2.4375 h 2.10937 v 2.4375 z m 0,14.75 v -12.45313 h 2.10937 v 12.45313 z m 4.53515,-6.21875 q 0,-3.46875 1.92188,-5.125 1.60937,-1.39063 3.92187,-1.39063 2.5625,0 4.1875,1.6875 1.625,1.6875 1.625,4.64063 0,2.40625 -0.71875,3.78125 -0.71875,1.375 -2.09375,2.14062 -1.375,0.76563 -3,0.76563 -2.625,0 -4.23437,-1.67188 -1.60938,-1.6875 -1.60938,-4.82812 z m 2.17188,0 q 0,2.39062 1.03125,3.57812 1.04687,1.1875 2.64062,1.1875 1.5625,0 2.60938,-1.1875 1.04687,-1.20312 1.04687,-3.65625 0,-2.3125 -1.0625,-3.5 -1.04687,-1.1875 -2.59375,-1.1875 -1.59375,0 -2.64062,1.1875 -1.03125,1.1875 -1.03125,3.57813 z m 11.95703,6.21875 v -12.45313 h 1.90625 v 1.78125 q 1.375,-2.0625 3.95312,-2.0625 1.125,0 2.0625,0.40625 0.95313,0.40625 1.42188,1.0625 0.46875,0.65625 0.65625,1.5625 0.125,0.57813 0.125,2.04688 v 7.65625 h -2.10938 v -7.57813 q 0,-1.28125 -0.25,-1.92187 -0.25,-0.64063 -0.875,-1.01563 -0.625,-0.39062 -1.46875,-0.39062 -1.34375,0 -2.32812,0.85937 -0.98438,0.85938 -0.98438,3.25 v 6.79688 z"
       fill-rule="nonzero"
       id="path43" /><path
       fill="#000000"
       fill-opacity="0"
       d="m 752.3779,254.77559 h 174.89764 v 47.65355 H 752.3779 Z"
       fill-rule="evenodd"
       id="path44" /><path
       fill="#1f77b4"
       d="m 807.2339,277.0081 1.76562,0.45313 q -0.5625,2.17187 -2,3.32812 -1.4375,1.14063 -3.53125,1.14063 -2.15625,0 -3.51562,-0.875 -1.34375,-0.89063 -2.0625,-2.54688 -0.70313,-1.67187 -0.70313,-3.59375 0,-2.07812 0.79688,-3.625 0.79687,-1.5625 2.26562,-2.35937 1.48438,-0.8125 3.25,-0.8125 2,0 3.35938,1.01562 1.375,1.01563 1.90625,2.875 l -1.73438,0.40625 q -0.46875,-1.45312 -1.35937,-2.10937 -0.875,-0.67188 -2.20313,-0.67188 -1.54687,0 -2.57812,0.73438 -1.03125,0.73437 -1.45313,1.98437 -0.42187,1.23438 -0.42187,2.5625 0,1.70313 0.5,2.96875 0.5,1.26563 1.54687,1.90625 1.04688,0.625 2.26563,0.625 1.48437,0 2.51562,-0.85937 1.03125,-0.85938 1.39063,-2.54688 z m 3.12921,-0.15625 q 0,-2.6875 1.48438,-3.96875 1.25,-1.07812 3.04687,-1.07812 2,0 3.26563,1.3125 1.26562,1.29687 1.26562,3.60937 0,1.85938 -0.5625,2.9375 -0.5625,1.0625 -1.64062,1.65625 -1.0625,0.59375 -2.32813,0.59375 -2.03125,0 -3.28125,-1.29687 -1.25,-1.3125 -1.25,-3.76563 z m 1.6875,0 q 0,1.85938 0.79688,2.79688 0.8125,0.92187 2.04687,0.92187 1.21875,0 2.03125,-0.92187 0.8125,-0.9375 0.8125,-2.84375 0,-1.79688 -0.8125,-2.71875 -0.8125,-0.92188 -2.03125,-0.92188 -1.23437,0 -2.04687,0.92188 -0.79688,0.90625 -0.79688,2.76562 z m 9.29761,4.84375 v -9.67187 h 1.46875 v 1.375 q 1.0625,-1.59375 3.07812,-1.59375 0.875,0 1.60938,0.3125 0.73437,0.3125 1.09375,0.82812 0.375,0.5 0.51562,1.20313 0.0937,0.45312 0.0937,1.59375 v 5.95312 h -1.64062 v -5.89062 q 0,-1 -0.20313,-1.48438 -0.1875,-0.5 -0.67187,-0.79687 -0.48438,-0.29688 -1.14063,-0.29688 -1.04687,0 -1.8125,0.67188 -0.75,0.65625 -0.75,2.51562 v 5.28125 z m 10.06323,0.79688 1.59375,0.23437 q 0.10938,0.75 0.5625,1.07813 0.60938,0.45312 1.67188,0.45312 1.14062,0 1.75,-0.45312 0.625,-0.45313 0.84375,-1.26563 0.125,-0.5 0.10937,-2.10937 -1.0625,1.26562 -2.67187,1.26562 -2,0 -3.09375,-1.4375 -1.09375,-1.4375 -1.09375,-3.45312 0,-1.39063 0.5,-2.5625 0.51562,-1.17188 1.45312,-1.79688 0.95313,-0.64062 2.25,-0.64062 1.70313,0 2.8125,1.375 v -1.15625 h 1.51563 v 8.35937 q 0,2.26563 -0.46875,3.20313 -0.45313,0.9375 -1.45313,1.48437 -0.98437,0.54688 -2.45312,0.54688 -1.71875,0 -2.79688,-0.78125 -1.0625,-0.76563 -1.03125,-2.34375 z m 1.35938,-5.8125 q 0,1.90625 0.75,2.78125 0.76562,0.875 1.90625,0.875 1.125,0 1.89062,-0.85938 0.76563,-0.875 0.76563,-2.73437 0,-1.78125 -0.79688,-2.67188 -0.78125,-0.90625 -1.89062,-0.90625 -1.09375,0 -1.85938,0.89063 -0.76562,0.875 -0.76562,2.625 z m 9.31317,5.01562 v -9.67187 h 1.46875 v 1.46875 q 0.5625,-1.03125 1.03125,-1.35938 0.48437,-0.32812 1.0625,-0.32812 0.82812,0 1.6875,0.53125 l -0.5625,1.51562 q -0.60938,-0.35937 -1.20313,-0.35937 -0.54687,0 -0.96875,0.32812 -0.42187,0.32813 -0.60937,0.89063 -0.28125,0.875 -0.28125,1.92187 v 5.0625 z m 12.55645,0 v -1.42187 q -1.125,1.64062 -3.0625,1.64062 -0.85937,0 -1.60937,-0.32812 -0.73438,-0.32813 -1.09375,-0.82813 -0.35938,-0.5 -0.5,-1.21875 -0.10938,-0.46875 -0.10938,-1.53125 v -5.98437 h 1.64063 v 5.35937 q 0,1.28125 0.10937,1.73438 0.15625,0.64062 0.65625,1.01562 0.5,0.375 1.23438,0.375 0.73437,0 1.375,-0.375 0.65625,-0.39062 0.92187,-1.03125 0.26563,-0.65625 0.26563,-1.89062 v -5.1875 h 1.64062 v 9.67187 z m 10.67261,-3.10937 1.6875,0.20312 q -0.40625,1.48438 -1.48437,2.3125 -1.07813,0.8125 -2.76563,0.8125 -2.125,0 -3.375,-1.29687 -1.23437,-1.3125 -1.23437,-3.67188 0,-2.45312 1.25,-3.79687 1.26562,-1.34375 3.26562,-1.34375 1.9375,0 3.15625,1.32812 1.23438,1.3125 1.23438,3.70313 0,0.15625 0,0.4375 h -7.21875 q 0.0937,1.59375 0.90625,2.45312 0.8125,0.84375 2.01562,0.84375 0.90625,0 1.54688,-0.46875 0.64062,-0.48437 1.01562,-1.51562 z m -5.39062,-2.65625 h 5.40625 q -0.10938,-1.21875 -0.625,-1.82813 -0.78125,-0.95312 -2.03125,-0.95312 -1.125,0 -1.90625,0.76562 -0.76563,0.75 -0.84375,2.01563 z m 9.14129,5.76562 v -9.67187 h 1.46875 v 1.375 q 1.0625,-1.59375 3.07813,-1.59375 0.875,0 1.60937,0.3125 0.73438,0.3125 1.09375,0.82812 0.375,0.5 0.51563,1.20313 0.0937,0.45312 0.0937,1.59375 v 5.95312 h -1.64063 v -5.89062 q 0,-1 -0.20312,-1.48438 -0.1875,-0.5 -0.67188,-0.79687 -0.48437,-0.29688 -1.14062,-0.29688 -1.04688,0 -1.8125,0.67188 -0.75,0.65625 -0.75,2.51562 v 5.28125 z m 13.95386,-1.46875 0.23437,1.45313 q -0.6875,0.14062 -1.23437,0.14062 -0.89063,0 -1.39063,-0.28125 -0.48437,-0.28125 -0.6875,-0.73437 -0.20312,-0.46875 -0.20312,-1.9375 v -5.57813 h -1.20313 v -1.26562 h 1.20313 v -2.39063 l 1.625,-0.98437 v 3.375 h 1.65625 v 1.26562 h -1.65625 v 5.67188 q 0,0.6875 0.0781,0.89062 0.0937,0.20313 0.28125,0.32813 0.20313,0.10937 0.57813,0.10937 0.26562,0 0.71875,-0.0625 z"
       fill-rule="nonzero"
       id="path45" /><path
       fill="#000000"
       fill-opacity="0"
       d="m 752.3779,339.99344 h 174.89764 v 47.65353 H 752.3779 Z"
       fill-rule="evenodd"
       id="path46" /><path
       fill="#ff7f0e"
       d="m 792.2924,366.91342 v -13.35938 h 1.76563 v 13.35938 z m 4.68335,0 v -9.67188 h 1.46875 v 1.375 q 1.0625,-1.59375 3.07812,-1.59375 0.875,0 1.60938,0.3125 0.73437,0.3125 1.09375,0.82813 0.375,0.5 0.51562,1.20312 0.0937,0.45313 0.0937,1.59375 v 5.95313 h -1.64062 v -5.89063 q 0,-1 -0.20313,-1.48437 -0.1875,-0.5 -0.67187,-0.79688 -0.48438,-0.29687 -1.14063,-0.29687 -1.04687,0 -1.8125,0.67187 -0.75,0.65625 -0.75,2.51563 v 5.28125 z m 16.68817,-3.54688 1.60938,0.21875 q -0.26563,1.65625 -1.35938,2.60938 -1.07812,0.9375 -2.67187,0.9375 -1.98438,0 -3.1875,-1.29688 -1.20313,-1.29687 -1.20313,-3.71875 0,-1.57812 0.51563,-2.75 0.51562,-1.17187 1.57812,-1.75 1.0625,-0.59375 2.3125,-0.59375 1.57813,0 2.57813,0.79688 1,0.79687 1.28125,2.26562 l -1.59375,0.23438 q -0.23438,-0.96875 -0.8125,-1.45313 -0.57813,-0.5 -1.39063,-0.5 -1.23437,0 -2.01562,0.89063 -0.78125,0.89062 -0.78125,2.8125 0,1.95312 0.75,2.84375 0.75,0.875 1.95312,0.875 0.96875,0 1.60938,-0.59375 0.65625,-0.59375 0.82812,-1.82813 z m 2.40625,-1.29687 q 0,-2.6875 1.48438,-3.96875 1.25,-1.07813 3.04687,-1.07813 2,0 3.26563,1.3125 1.26562,1.29688 1.26562,3.60938 0,1.85937 -0.5625,2.9375 -0.5625,1.0625 -1.64062,1.65625 -1.0625,0.59375 -2.32813,0.59375 -2.03125,0 -3.28125,-1.29688 -1.25,-1.3125 -1.25,-3.76562 z m 1.6875,0 q 0,1.85937 0.79688,2.79687 0.8125,0.92188 2.04687,0.92188 1.21875,0 2.03125,-0.92188 0.8125,-0.9375 0.8125,-2.84375 0,-1.79687 -0.8125,-2.71875 -0.8125,-0.92187 -2.03125,-0.92187 -1.23437,0 -2.04687,0.92187 -0.79688,0.90625 -0.79688,2.76563 z m 9.29761,4.84375 v -9.67188 h 1.46875 v 1.375 q 1.0625,-1.59375 3.07812,-1.59375 0.875,0 1.60938,0.3125 0.73437,0.3125 1.09375,0.82813 0.375,0.5 0.51562,1.20312 0.0937,0.45313 0.0937,1.59375 v 5.95313 h -1.64062 v -5.89063 q 0,-1 -0.20313,-1.48437 -0.1875,-0.5 -0.67187,-0.79688 -0.48438,-0.29687 -1.14063,-0.29687 -1.04687,0 -1.8125,0.67187 -0.75,0.65625 -0.75,2.51563 v 5.28125 z m 10.06323,0.79687 1.59375,0.23438 q 0.10937,0.75 0.5625,1.07812 0.60937,0.45313 1.67187,0.45313 1.14063,0 1.75,-0.45313 0.625,-0.45312 0.84375,-1.26562 0.125,-0.5 0.10938,-2.10938 -1.0625,1.26563 -2.67188,1.26563 -2,0 -3.09375,-1.4375 -1.09375,-1.4375 -1.09375,-3.45313 0,-1.39062 0.5,-2.5625 0.51563,-1.17187 1.45313,-1.79687 0.95312,-0.64063 2.25,-0.64063 1.70312,0 2.8125,1.375 v -1.15625 h 1.51562 v 8.35938 q 0,2.26562 -0.46875,3.20312 -0.45312,0.9375 -1.45312,1.48438 -0.98438,0.54687 -2.45313,0.54687 -1.71875,0 -2.79687,-0.78125 -1.0625,-0.76562 -1.03125,-2.34375 z m 1.35937,-5.8125 q 0,1.90625 0.75,2.78125 0.76563,0.875 1.90625,0.875 1.125,0 1.89063,-0.85937 0.76562,-0.875 0.76562,-2.73438 0,-1.78125 -0.79687,-2.67187 -0.78125,-0.90625 -1.89063,-0.90625 -1.09375,0 -1.85937,0.89062 -0.76563,0.875 -0.76563,2.625 z m 9.31324,5.01563 v -9.67188 h 1.46875 v 1.46875 q 0.5625,-1.03125 1.03125,-1.35937 0.48437,-0.32813 1.0625,-0.32813 0.82812,0 1.6875,0.53125 l -0.5625,1.51563 q -0.60938,-0.35938 -1.20313,-0.35938 -0.54687,0 -0.96875,0.32813 -0.42187,0.32812 -0.60937,0.89062 -0.28125,0.875 -0.28125,1.92188 v 5.0625 z m 12.55639,0 v -1.42188 q -1.125,1.64063 -3.0625,1.64063 -0.85937,0 -1.60937,-0.32813 -0.73438,-0.32812 -1.09375,-0.82812 -0.35938,-0.5 -0.5,-1.21875 -0.10938,-0.46875 -0.10938,-1.53125 v -5.98438 h 1.64063 v 5.35938 q 0,1.28125 0.10937,1.73437 0.15625,0.64063 0.65625,1.01563 0.5,0.375 1.23438,0.375 0.73437,0 1.375,-0.375 0.65625,-0.39063 0.92187,-1.03125 0.26563,-0.65625 0.26563,-1.89063 v -5.1875 h 1.64062 v 9.67188 z m 10.67261,-3.10938 1.6875,0.20313 q -0.40625,1.48437 -1.48437,2.3125 -1.07813,0.8125 -2.76563,0.8125 -2.125,0 -3.375,-1.29688 -1.23437,-1.3125 -1.23437,-3.67187 0,-2.45313 1.25,-3.79688 1.26562,-1.34375 3.26562,-1.34375 1.9375,0 3.15625,1.32813 1.23438,1.3125 1.23438,3.70312 0,0.15625 0,0.4375 h -7.21875 q 0.0937,1.59375 0.90625,2.45313 0.8125,0.84375 2.01562,0.84375 0.90625,0 1.54688,-0.46875 0.64062,-0.48438 1.01562,-1.51563 z m -5.39062,-2.65625 h 5.40625 q -0.10938,-1.21875 -0.625,-1.82812 -0.78125,-0.95313 -2.03125,-0.95313 -1.125,0 -1.90625,0.76563 -0.76563,0.75 -0.84375,2.01562 z m 9.14135,5.76563 v -9.67188 h 1.46875 v 1.375 q 1.0625,-1.59375 3.07813,-1.59375 0.875,0 1.60931,0.3125 0.73438,0.3125 1.09375,0.82813 0.375,0.5 0.51563,1.20312 0.0937,0.45313 0.0937,1.59375 v 5.95313 h -1.64063 v -5.89063 q 0,-1 -0.20312,-1.48437 -0.1875,-0.5 -0.67182,-0.79688 -0.48437,-0.29687 -1.14062,-0.29687 -1.04688,0 -1.8125,0.67187 -0.75,0.65625 -0.75,2.51563 v 5.28125 z m 13.9538,-1.46875 0.23437,1.45312 q -0.6875,0.14063 -1.23437,0.14063 -0.89063,0 -1.39063,-0.28125 -0.48437,-0.28125 -0.6875,-0.73438 -0.20312,-0.46875 -0.20312,-1.9375 v -5.57812 h -1.20313 v -1.26563 h 1.20313 v -2.39062 l 1.625,-0.98438 v 3.375 h 1.65625 v 1.26563 h -1.65625 v 5.67187 q 0,0.6875 0.0781,0.89063 0.0937,0.20312 0.28125,0.32812 0.20313,0.10938 0.57813,0.10938 0.26562,0 0.71875,-0.0625 z"
       fill-rule="nonzero"
       id="path47" /><path
       fill="#000000"
       fill-opacity="0"
       d="m 126.67716,417.40945 h 146.26773 v 47.65353 H 126.67716 Z"
       fill-rule="evenodd"
       id="path48" /><path
       fill="#000000"
       d="m 172.35269,444.32944 v -11.78125 h -4.40625 v -1.57813 h 10.57812 v 1.57813 h -4.40625 v 11.78125 z m 7.0939,-11.46875 v -1.89063 h 1.64063 v 1.89063 z m 0,11.46875 v -9.67188 h 1.64063 v 9.67188 z m 4.14482,0 v -9.67188 h 1.46875 v 1.35938 q 0.45313,-0.71875 1.20313,-1.14063 0.76562,-0.4375 1.71875,-0.4375 1.07812,0 1.76562,0.45313 0.6875,0.4375 0.96875,1.23437 1.15625,-1.6875 2.98438,-1.6875 1.45312,0 2.21875,0.79688 0.78125,0.79687 0.78125,2.45312 v 6.64063 h -1.64063 v -6.09375 q 0,-0.98438 -0.15625,-1.40625 -0.15625,-0.4375 -0.57812,-0.70313 -0.42188,-0.26562 -0.98438,-0.26562 -1.01562,0 -1.6875,0.6875 -0.67187,0.67187 -0.67187,2.15625 v 5.625 h -1.64063 v -6.28125 q 0,-1.09375 -0.40625,-1.64063 -0.40625,-0.54687 -1.3125,-0.54687 -0.6875,0 -1.28125,0.35937 -0.59375,0.35938 -0.85937,1.0625 -0.25,0.70313 -0.25,2.03125 v 5.01563 z m 22.16581,-3.10938 1.6875,0.20313 q -0.40625,1.48437 -1.48438,2.3125 -1.07812,0.8125 -2.76562,0.8125 -2.125,0 -3.375,-1.29688 -1.23438,-1.3125 -1.23438,-3.67187 0,-2.45313 1.25,-3.79688 1.26563,-1.34375 3.26563,-1.34375 1.9375,0 3.15625,1.32813 1.23437,1.3125 1.23437,3.70312 0,0.15625 0,0.4375 h -7.21875 q 0.0937,1.59375 0.90625,2.45313 0.8125,0.84375 2.01563,0.84375 0.90625,0 1.54687,-0.46875 0.64063,-0.48438 1.01563,-1.51563 z m -5.39063,-2.65625 h 5.40625 q -0.10937,-1.21875 -0.625,-1.82812 -0.78125,-0.95313 -2.03125,-0.95313 -1.125,0 -1.90625,0.76563 -0.76562,0.75 -0.84375,2.01562 z m 27.26215,-2.21875 q 1.20312,1.32813 2.07812,2.01563 0.89063,0.6875 1.67188,1.01562 v 0.42188 q -0.89063,0.4375 -1.75,1.125 -0.84375,0.67187 -2.01563,1.96875 h -0.70312 q 0.85937,-1.82813 1.79687,-2.8125 h -14.53125 v -0.92188 h 14.53125 q -0.6875,-0.875 -0.96875,-1.29687 -0.26562,-0.4375 -0.8125,-1.51563 z"
       fill-rule="nonzero"
       id="path49"
       style="fill:#595959;fill-opacity:1" /><g
       style="clip-rule:evenodd;fill-rule:evenodd;stroke-miterlimit:1"
       id="g50"
       transform="matrix(0.41188968,0,0,0.41188968,418.72477,224.73024)"><g
         id="g48"><circle
           style="fill:#f0f0f0;fill-opacity:1;stroke:#686565;stroke-width:2.34px"
           id="circle1"
           r="233.021"
           cy="234.673"
           cx="234.673" /><circle
           cx="131.425"
           cy="343.465"
           r="14.899"
           style="fill:#97aac8;fill-opacity:1;stroke:#97aac8;stroke-width:2.54px;stroke-opacity:1"
           id="circle2" /><circle
           cx="278.10699"
           cy="146.295"
           r="14.899"
           style="fill:#97aac8;fill-opacity:1;stroke:#97aac8;stroke-width:2.54px;stroke-opacity:1"
           id="circle3" /><circle
           cx="384.33701"
           cy="118.94"
           r="14.899"
           style="fill:#97aac8;stroke:#97aac8;stroke-width:2.54px"
           id="circle4" /><circle
           cx="250.147"
           cy="62.700001"
           r="14.899"
           style="fill:#97aac8;stroke:#97aac8;stroke-width:2.54px"
           id="circle5" /><circle
           cx="117.475"
           cy="109.566"
           r="4.8049998"
           style="fill:#97aac8;stroke:#97aac8;stroke-width:0.82px"
           id="circle6" /><circle
           cx="154.222"
           cy="223.888"
           r="4.8049998"
           style="fill:#97aac8;stroke:#97aac8;stroke-width:0.82px"
           id="circle7" /><circle
           cx="297.46701"
           cy="165.388"
           r="4.8049998"
           style="fill:#97aac8;stroke:#97aac8;stroke-width:0.82px"
           id="circle8" /><circle
           cx="360.09399"
           cy="113.465"
           r="4.8049998"
           style="fill:#97aac8;stroke:#97aac8;stroke-width:0.82px"
           id="circle9" /><circle
           cx="248.625"
           cy="276.56799"
           r="4.8049998"
           style="fill:#97aac8;stroke:#97aac8;stroke-width:0.82px"
           id="circle10" /><circle
           cx="166.02"
           cy="258.104"
           r="4.8049998"
           style="fill:#97aac8;stroke:#97aac8;stroke-width:0.82px"
           id="circle11" /><circle
           cx="112.003"
           cy="355.84399"
           r="4.8049998"
           style="fill:#97aac8;stroke:#97aac8;stroke-width:0.82px"
           id="circle12" /><circle
           cx="242.27699"
           cy="375.479"
           r="4.8049998"
           style="fill:#97aac8;stroke:#97aac8;stroke-width:0.82px"
           id="circle13" /><circle
           cx="251.27499"
           cy="395.936"
           r="4.8049998"
           style="fill:#97aac8;stroke:#97aac8;stroke-width:0.82px"
           id="circle14" /><circle
           cx="394.45901"
           cy="340.01001"
           r="4.8049998"
           style="fill:#97aac8;stroke:#97aac8;stroke-width:0.82px"
           id="circle15" /><circle
           cx="407.005"
           cy="297.332"
           r="4.8049998"
           style="fill:#97aac8;stroke:#97aac8;stroke-width:0.82px"
           id="circle16" /><circle
           cx="391.664"
           cy="315.974"
           r="14.899"
           style="fill:#97aac8;stroke:#97aac8;stroke-width:2.54px"
           id="circle17" /><circle
           cx="95.459"
           cy="123.193"
           r="14.899"
           style="fill:#97aac8;stroke:#97aac8;stroke-width:2.54px"
           id="circle18" /><circle
           cx="269.173"
           cy="282.55801"
           r="14.899"
           style="fill:#97aac8;stroke:#97aac8;stroke-width:2.54px"
           id="circle19" /><circle
           cx="174.95599"
           cy="234.284"
           r="14.899"
           style="fill:#97aac8;stroke:#97aac8;stroke-width:2.54px"
           id="circle20" /><circle
           cx="64.607002"
           cy="269.81299"
           r="14.899"
           style="fill:#97aac8;stroke:#97aac8;stroke-width:2.54px"
           id="circle21" /><circle
           cx="227.408"
           cy="396.50201"
           r="14.899"
           style="fill:#97aac8;stroke:#97aac8;stroke-width:2.54px"
           id="circle22" /><circle
           cx="178.96001"
           cy="255.67999"
           r="3.6040001"
           style="fill:#97aac8;fill-opacity:1;stroke:#97aac8;stroke-width:0.62px;stroke-opacity:1"
           id="circle23" /><circle
           cx="258.49399"
           cy="302.30099"
           r="3.6040001"
           style="fill:#97aac8;fill-opacity:1;stroke:#97aac8;stroke-width:0.62px;stroke-opacity:1"
           id="circle24" /><circle
           cx="209.812"
           cy="386.03"
           r="3.6040001"
           style="fill:#97aac8;fill-opacity:1;stroke:#97aac8;stroke-width:0.62px;stroke-opacity:1"
           id="circle25" /><circle
           cx="196.623"
           cy="230.383"
           r="3.6040001"
           style="fill:#97aac8;fill-opacity:1;stroke:#97aac8;stroke-width:0.62px;stroke-opacity:1"
           id="circle26" /><circle
           cx="116.991"
           cy="123.124"
           r="3.6040001"
           style="fill:#97aac8;fill-opacity:1;stroke:#97aac8;stroke-width:0.62px;stroke-opacity:1"
           id="circle27" /><circle
           cx="235.28"
           cy="51.011002"
           r="3.6040001"
           style="fill:#97aac8;fill-opacity:1;stroke:#97aac8;stroke-width:0.62px;stroke-opacity:1"
           id="circle28" /><circle
           cx="256.604"
           cy="263.95001"
           r="3.6040001"
           style="fill:#97aac8;fill-opacity:1;stroke:#97aac8;stroke-width:0.62px;stroke-opacity:1"
           id="circle29" /><circle
           cx="372.862"
           cy="302.48901"
           r="3.6040001"
           style="fill:#97aac8;fill-opacity:1;stroke:#97aac8;stroke-width:0.62px;stroke-opacity:1"
           id="circle30" /><path
           d="m 139.307,336.322 c 3.862,-2.834 8.984,-6.738 12.453,-10.428 5.61,-5.967 9.28,-13.417 12.914,-20.683 2.957,-5.911 5.543,-12.008 7.966,-18.157 3.701,-9.393 4.849,-20.647 6.07,-30.479"
           style="fill:none;stroke:#97aac8;stroke-width:2.54px;stroke-opacity:1"
           id="path30-7" /><path
           d="m 155.683,321.399 c 6.353,-2.586 13.455,-5.504 20.435,-6.018 8.525,-0.626 19.006,-0.268 27.379,-0.217 14.111,0.086 29.751,2.087 43.406,-3.289 4.353,-1.714 8.429,-6.337 11.423,-9.576"
           style="fill:none;stroke:#97aac8;stroke-width:2.54px;stroke-opacity:1"
           id="path31-9" /><path
           d="m 163.922,318.27 c 5.148,0.525 12.757,0.629 16.916,4.27 4.15,3.634 5.454,10.134 6.8,15.016 0.698,2.532 5.785,23.536 5.953,24.191 1.59,6.211 2.855,15.761 8.489,20.493 2.094,1.759 5.017,2.623 7.59,3.309"
           style="fill:none;stroke:#97aac8;stroke-width:2.54px;stroke-opacity:1"
           id="path32-3" /><path
           d="m 278.602,159.995 c -1.261,9.865 -3.554,20.07 -8.41,28.856 -3.458,6.258 -8.893,11.267 -14.099,15.996 -16.54,15.026 -35.834,24.067 -58.173,26.101"
           style="fill:none;stroke:#97aac8;stroke-width:2.54px;stroke-opacity:1"
           id="path33-8" /><path
           d="m 256.305,263.639 c -2.24,-3.624 -4.134,-6.843 -5.544,-10.925 -1.944,-5.631 -3.967,-12.609 -3.608,-18.752 0.341,-5.842 3.289,-11.738 5.911,-16.746 4.463,-8.523 8.705,-15.293 13.813,-23.405"
           style="fill:none;stroke:#97aac8;stroke-width:2.54px;stroke-opacity:1"
           id="path34-0" /><path
           d="m 275.882,173.602 c -1.008,11.31 -1.92,23.185 0.814,34.338 2.174,8.87 7.554,16.823 13.212,23.827 8.012,9.92 20.528,24.121 29.817,33.149 11.563,11.239 18.01,16.213 31.236,25.223 7.549,5.144 13.392,9.549 21.928,11.502"
           style="fill:none;stroke:#97aac8;stroke-width:2.54px;stroke-opacity:1"
           id="path35-2" /><path
           d="m 269.954,188.698 c -10.961,0.141 -22.998,0.237 -33.599,-3.307 -13.644,-4.56 -26.887,-13.836 -38.842,-21.172 -17.46,-10.716 -34.392,-23.032 -52.953,-31.83 -8.671,-4.11 -17.468,-7.072 -26.728,-9.481"
           style="fill:none;stroke:#97aac8;stroke-width:2.54px;stroke-opacity:1"
           id="path36-4" /><path
           d="m 182.865,155.064 c -7.592,-8.18 -13.062,-19.194 -13.644,-30.512 -0.412,-8.005 1.71,-16.934 3.92,-24.428 5.762,-19.539 19.769,-38.023 38.699,-46.352 7.308,-3.216 15.449,-2.886 23.26,-2.902"
           style="fill:none;stroke:#97aac8;stroke-width:2.54px;stroke-opacity:1"
           id="path37-8" /><path
           d="m 393.3,154.621 c 1.703,6.549 4.532,18.471 -4.705,21.346 -4.824,1.501 -9.706,2.821 -14.622,3.985 -16.607,3.93 -32.129,2.262 -48.467,-2.206 -9.826,-2.687 -19.476,-8.05 -28.336,-12.791"
           style="fill:none;stroke:#97aac8;stroke-width:2.54px"
           id="path38-3" /><path
           d="m 394.053,318.409 c -1.324,2.606 -2.737,5.17 -4.271,7.658 -6.514,10.568 -20.65,17.871 -29.579,23.855 -33.01,22.12 -71.687,32.832 -109.337,44.164"
           style="fill:none;stroke:#97aac8;stroke-width:2.54px"
           id="path39-9" /><path
           d="m 228.977,405.174 c 2.035,2.996 4.972,7.115 7.907,9.65 4.606,3.977 11.134,6.204 16.802,8.039 13.341,4.319 29.288,5.399 42.926,1.687 8.848,-2.408 18.87,-8.912 26.003,-13.095 13.833,-8.113 26.395,-17.741 37.99,-28.796 5.853,-5.579 14.897,-13.908 20.256,-20.888 5.709,-7.436 11.293,-17.978 15.297,-25.886"
           style="fill:none;stroke:#97aac8;stroke-width:2.54px"
           id="path40-0" /><path
           d="m 268.67,288.15 c 0.81,23.28 -0.614,48.157 -11.493,69.203 -3.564,6.894 -10.018,13.222 -15.276,18.653"
           style="fill:none;stroke:#97aac8;stroke-width:2.54px"
           id="path41-5" /><path
           d="m 66.461,282.142 c 0.509,2.575 1.35,6.345 2.795,8.817 2.09,3.578 4.887,4.812 8.801,6.949 9.032,4.932 20.453,1.997 29.57,-0.771 8.594,-2.609 16.039,-5.796 24.05,-9.862 7.344,-3.727 15.181,-7.997 21.348,-13.638 5.992,-5.483 10.67,-12.443 15.105,-19.158"
           style="fill:none;stroke:#97aac8;stroke-width:2.54px"
           id="path42-2" /><path
           d="m 253.79,67.51 c -1.05,3.046 -2.422,7.345 -2.647,10.792 -0.319,4.903 1.068,8.006 2.998,13.017 6.905,17.933 30.88,18.595 46.887,19.657 7.173,0.476 14.351,0.957 21.538,1.081 6.287,0.108 12.551,-1.113 18.837,-0.982 5.557,0.116 13.7,1.222 19.318,2.025"
           style="fill:none;stroke:#97aac8;stroke-width:2.54px"
           id="path43-2" /><path
           d="m 251.268,76.696 c -1.617,3.992 -4.162,9.866 -7.304,13.381 -4.575,5.119 -11.828,6.969 -18.278,8.297 -5.624,1.158 -11.272,2.236 -16.964,2.989 -13.999,1.849 -34.759,3.384 -48.885,4.195 -15.913,0.913 -29.011,0.797 -44.012,4.001"
           style="fill:none;stroke:#97aac8;stroke-width:2.54px"
           id="path44-7" /><path
           d="m 385.819,131.886 c 12.373,36.847 23.166,74.758 29.346,113.179 2.797,17.386 8.144,42.014 -9.687,53.272"
           style="fill:none;stroke:#97aac8;stroke-width:2.54px"
           id="path45-3" /><path
           d="m 70.821,293.138 c 3.942,9.676 7.829,19.377 11.972,28.968 3.265,7.56 8.232,24.418 16.689,32.161 2.428,2.222 5.303,4.306 8.755,4.182 2.626,-0.095 6.017,-1.582 8.146,-2.574"
           style="fill:none;stroke:#97aac8;stroke-width:2.54px"
           id="path46-7" /><path
           d="m 93.839,131.642 c 3.897,11.578 7.349,24.172 12.575,35.286 4.978,10.589 11.969,20.585 18.909,29.952 7.848,10.592 16.403,21.888 29.123,26.64"
           style="fill:none;stroke:#97aac8;stroke-width:2.54px"
           id="path47-9" /><path
           d="m 178.94,242.188 c 14.321,6.295 25.423,17.192 38.919,24.918 9.76,5.586 22.367,8.472 33.279,10.383"
           style="fill:none;stroke:#97aac8;stroke-width:2.54px"
           id="path48-0" /></g></g></g></svg>
